:SAMPLES-PER-SECOND 30
:FULLY-SPECIFIED
:DEGREES
261
root  -1.48873 34.1032 -32.8154 -162.802 34.8316 -172.683
RightUpLeg  -43.7254 -25.6278 4.34461
RightLeg  39.6275 -3.96467 -2.89256
RightFoot  15.2516 0.238813 -1.2191
RightToes  -33.3998 -0.168019 -0.274887
Spine  3.30115 -1.09856 -3.14951
Spine1  6.70209 -2.2195 -5.43844
HEad  -35.7773 -27.8526 7.51619
LeftShoulder1  -1.94126e-019 -3.10601e-018 -2.51263e-017
LeftArm  -8.40392 1.8498 -63.1663
LeftForeArm  34.5099 -55.0959 -13.1765
LeftHand  -0.992122 -2.57754 14.6334
RightShoulder  -4.96962e-017 0 -2.36833e-017
RightArm  -43.6306 -39.5688 81.5523
RightForeArm  31.5536 42.1293 7.9859
RightHand  -0.197489 -2.79155 -8.356
LeftUpLeg  -29.0989 18.0639 10.1181
LeftLeg  28.5329 2.06952 0.953891
LeftFoot  5.46363 -0.0134719 0.312659
LeftToes  -38.6575 1.9075e-006 4.29692e-008
262
root  -1.17785 34.2767 -32.8456 -162.842 36.2561 -175.193
RightUpLeg  -40.7581 -26.0981 3.22472
RightLeg  41.1583 -5.00514 -3.85144
RightFoot  12.3211 0.194856 -1.2343
RightToes  -31.5182 -0.154514 -0.262378
Spine  2.90391 -0.54907 -3.25112
Spine1  5.8281 -1.00858 -5.7897
HEad  -39.6299 -29.1605 8.31629
LeftShoulder1  -1.94126e-019 -3.10601e-018 -2.51263e-017
LeftArm  -5.7469 7.25546 -66.2328
LeftForeArm  33.2955 -55.0867 -13.2863
LeftHand  -0.883545 -3.29259 12.0385
RightShoulder  -4.96962e-017 0 -2.36833e-017
RightArm  -37.8725 -38.0568 75.7181
RightForeArm  43.3764 55.2045 12.4343
RightHand  -0.402797 -0.163671 -8.97702
LeftUpLeg  -26.7392 16.9517 8.52627
LeftLeg  23.0546 4.88608 1.71208
LeftFoot  7.81391 -0.0487429 0.817825
LeftToes  -42.7215 1.9075e-006 4.29692e-008
263
root  -0.943091 34.1844 -32.78 -162.517 38.9699 -177.411
RightUpLeg  -39.7254 -25.8576 2.01358
RightLeg  42.2534 -5.71374 -4.56584
RightFoot  8.2604 0.105983 -0.89441
RightToes  -28.3906 -0.132997 -0.240626
Spine  2.3008 0.0858955 -3.32125
Spine1  4.52332 0.335906 -6.03676
HEad  -43.7783 -30.0128 9.67235
LeftShoulder1  -1.94126e-019 -3.10601e-018 -2.51263e-017
LeftArm  -2.53294 11.5186 -70.0352
LeftForeArm  36.0437 -58.1178 -14.8807
LeftHand  -0.79485 -4.00287 10.0826
RightShoulder  -4.96962e-017 0 -2.36833e-017
RightArm  -35.5281 -34.747 70.0388
RightForeArm  56.9019 66.7956 20.0646
RightHand  -0.461497 0.723297 -8.86499
LeftUpLeg  -26.217 18.2579 6.59535
LeftLeg  20.5256 5.73581 1.73013
LeftFoot  8.41998 -0.0621485 1.0058
LeftToes  -45.1483 1.9075e-006 4.29692e-008
264
root  -0.694228 33.9514 -32.668 -162.862 42.8029 -179.5
RightUpLeg  -39.2813 -25.1793 0.331947
RightLeg  42.1393 -7.33388 -5.81388
RightFoot  4.61595 0.0454227 -0.5504
RightToes  -24.9909 -0.110992 -0.215689
Spine  2.14478 0.508874 -3.31475
Spine1  4.09229 1.28069 -6.1513
HEad  -48.8979 -28.5344 11.3067
LeftShoulder1  -1.94126e-019 -3.10601e-018 -2.51263e-017
LeftArm  1.45726 12.7386 -73.9208
LeftForeArm  35.4695 -62.0963 -17.9819
LeftHand  -0.806348 -3.24236 11.0744
RightShoulder  -4.96962e-017 0 -2.36833e-017
RightArm  -35.8774 -27.8426 66.525
RightForeArm  70.9558 75.5719 35.3996
RightHand  -0.395421 -0.541663 -9.46143
LeftUpLeg  -26.4556 20.0563 5.00815
LeftLeg  21.2466 7.12058 2.24395
LeftFoot  7.92336 -0.0696435 1.16712
LeftToes  -47.0302 1.9075e-006 4.29692e-008
265
root  -0.387235 33.6787 -32.5469 -164.112 48.0607 178.465
RightUpLeg  -38.8592 -23.3829 -2.07141
RightLeg  39.9621 -8.59611 -6.28103
RightFoot  1.07114 0.00438724 0.0532501
RightToes  -22.0883 -0.0934033 -0.193397
Spine  2.30171 0.802933 -3.14104
Spine1  4.2421 1.99376 -5.95391
HEad  -52.7124 -24.5215 11.2305
LeftShoulder1  -1.94126e-019 -3.10601e-018 -2.51263e-017
LeftArm  5.16352 10.5803 -77.442
LeftForeArm  38.9782 -66.4188 -22.0915
LeftHand  -0.767269 -3.16284 10.6448
RightShoulder  -4.96962e-017 0 -2.36833e-017
RightArm  -37.144 -18.4156 67.3911
RightForeArm  91.7657 80.0771 60.5888
RightHand  -0.410264 -2.42141 -15.7852
LeftUpLeg  -26.2009 23.7898 3.60024
LeftLeg  23.1561 8.04916 2.83125
LeftFoot  6.96048 -0.0615616 1.17376
LeftToes  -47.2015 1.9075e-006 4.29692e-008
266
root  0.0306994 33.3561 -32.3286 -164.347 53.5378 177.687
RightUpLeg  -39.459 -20.8328 -3.58316
RightLeg  36.4595 -8.25337 -5.29581
RightFoot  -0.458953 -0.00170725 0.367904
RightToes  -22.0861 -0.0933903 -0.193379
Spine  2.31915 0.862024 -2.64096
Spine1  4.11613 2.25094 -5.12851
HEad  -53.883 -19.3407 8.71045
LeftShoulder1  -1.94126e-019 -3.10601e-018 -2.51263e-017
LeftArm  8.39554 5.14924 -79.6473
LeftForeArm  46.7062 -71.4342 -29.1756
LeftHand  -0.719894 -2.97415 10.2181
RightShoulder  -4.96962e-017 0 -2.36833e-017
RightArm  -35.5017 -9.97745 73.2713
RightForeArm  109.871 81.1294 81.5433
RightHand  -0.588622 -3.06096 -28.8532
LeftUpLeg  -26.7905 27.6387 3.4948
LeftLeg  26.815 9.08851 3.85673
LeftFoot  5.50351 -0.0447868 1.09334
LeftToes  -47.0058 1.9075e-006 4.29692e-008
267
root  0.673718 32.9302 -32.1228 -164.633 59.9221 177.358
RightUpLeg  -40.9377 -17.7735 -4.75443
RightLeg  34.6247 -4.94377 -2.9718
RightFoot  3.05456 0.014685 -0.0111372
RightToes  -35.2016 -0.181331 -0.286444
Spine  2.24386 0.607994 -2.09703
Spine1  3.87354 1.76684 -4.05423
HEad  -53.0497 -12.1958 3.79044
LeftShoulder1  -1.94126e-019 -3.10601e-018 -2.51263e-017
LeftArm  8.65452 -2.03158 -80.1092
LeftForeArm  57.5198 -75.8596 -40.7244
LeftHand  -0.83318 -3.33065 11.3229
RightShoulder  -4.96962e-017 0 -2.36833e-017
RightArm  -26.391 -5.40299 81.3093
RightForeArm  106.24 81.0459 76.6777
RightHand  -0.657471 -3.66257 -42.9516
LeftUpLeg  -26.4256 30.5586 4.79621
LeftLeg  31.7296 11.0511 5.82638
LeftFoot  4.23441 -0.0336967 1.07302
LeftToes  -49.2979 1.9075e-006 4.29692e-008
268
root  1.54133 32.3246 -31.9007 -165.352 66.3484 177.137
RightUpLeg  -44.9014 -17.7611 -2.99502
RightLeg  41.2377 0.488157 0.348611
RightFoot  0.669591 0.000770763 0.275343
RightToes  -35.6098 -0.184397 -0.289004
Spine  2.23923 -0.208901 -1.653
Spine1  3.89442 -0.0483903 -2.97106
HEad  -53.223 -3.72959 -0.0414591
LeftShoulder1  -1.94126e-019 -3.10601e-018 -2.51263e-017
LeftArm  5.6508 -11.4848 -77.3601
LeftForeArm  68.6094 -78.0872 -50.8148
LeftHand  -0.965928 -4.21778 11.9223
RightShoulder  -4.96962e-017 0 -2.36833e-017
RightArm  -11.2332 -5.53871 85.7682
RightForeArm  85.5755 78.9098 49.0834
RightHand  0.0784423 -5.54731 -44.4101
LeftUpLeg  -24.0062 30.6042 7.32076
LeftLeg  35.9862 14.5318 9.00943
LeftFoot  3.38813 -0.0293804 1.15495
LeftToes  -50.3084 1.9075e-006 4.29692e-008
269
root  2.5915 31.6493 -31.5895 -162.859 73.1828 -179.331
RightUpLeg  -47.17 -16.076 -0.332812
RightLeg  46.8377 3.93942 3.6468
RightFoot  -2.87212 -0.0147326 -0.0554335
RightToes  -32.8154 -0.163781 -0.271049
Spine  2.43021 -1.07052 -1.29724
Spine1  4.34236 -1.99729 -2.08315
HEad  -54.0773 4.68929 -1.89864
LeftShoulder1  -1.94126e-019 -3.10601e-018 -2.51263e-017
LeftArm  -0.566851 -22.1839 -70.2004
LeftForeArm  68.1739 -77.4629 -45.9954
LeftHand  -1.3049 -5.10813 14.6676
RightShoulder  -4.96962e-017 0 -2.36833e-017
RightArm  -2.67509 -7.54436 86.7796
RightForeArm  79.8833 73.7078 28.0424
RightHand  -2.05556 6.17297 -20.7277
LeftUpLeg  -20.1813 30.3538 11.0347
LeftLeg  40.103 18.5726 13.2187
LeftFoot  2.1185 -0.014813 0.962735
LeftToes  -50.5777 1.9075e-006 4.29692e-008
270
root  3.65263 31.1018 -31.1946 -159.785 79.475 -175.704
RightUpLeg  -48.1415 -13.1976 1.07347
RightLeg  50.7741 5.63741 5.98379
RightFoot  -6.19748 -0.0661817 -0.721306
RightToes  -31.7591 -0.15622 -0.264005
Spine  2.32187 -2.23138 -1.45979
Spine1  4.21626 -4.46392 -2.31179
HEad  -53.7504 12.6514 -2.72784
LeftShoulder1  -1.94126e-019 -3.10601e-018 -2.51263e-017
LeftArm  -9.82971 -29.6871 -57.8751
LeftForeArm  64.0843 -73.2177 -29.8914
LeftHand  -1.67176 -5.07545 18.7019
RightShoulder  -4.96962e-017 0 -2.36833e-017
RightArm  2.26121 -8.54635 85.4183
RightForeArm  70.1401 61.7165 14.1813
RightHand  -1.65281 7.98183 -14.6148
LeftUpLeg  -16.2856 26.6522 14.0168
LeftLeg  43.3727 18.6759 14.8762
LeftFoot  1.84435 -0.00546606 0.867174
LeftToes  -48.1464 1.9075e-006 4.29692e-008
271
root  4.71684 30.8247 -30.8326 -153.526 84.1011 -169.283
RightUpLeg  -48.4226 -9.71613 1.62043
RightLeg  53.8606 5.73757 6.77781
RightFoot  -8.77863 -0.131653 -1.22126
RightToes  -29.0062 -0.137138 -0.245
Spine  2.15422 -3.38039 -1.64995
Spine1  3.93581 -6.8555 -2.69149
HEad  -53.5919 18.958 -3.62914
LeftShoulder1  -1.94126e-019 -3.10601e-018 -2.51263e-017
LeftArm  -18.8433 -33.3242 -44.8512
LeftForeArm  64.3239 -64.4475 -16.9035
LeftHand  -1.65161 -4.1624 20.1758
RightShoulder  -4.96962e-017 0 -2.36833e-017
RightArm  -5.33946 -10.9539 81.5627
RightForeArm  63.9411 52.4577 9.63459
RightHand  -2.03767 5.97479 -20.8965
LeftUpLeg  -13.3675 18.5679 15.5392
LeftLeg  45.4358 17.0408 14.6526
LeftFoot  1.77119 0.00501832 0.765101
LeftToes  -42.7414 1.9075e-006 4.29692e-008
